<?xml version="1.0" encoding="UTF-8" standalone="no"?>
<!DOCTYPE svg PUBLIC "-//W3C//DTD SVG 1.1//EN"
 "http://www.w3.org/Graphics/SVG/1.1/DTD/svg11.dtd">
<!-- Generated by graphviz version 7.1.0 (0)
 -->
<!-- Pages: 1 -->
<svg width="1431pt" height="404pt"
 viewBox="0.00 0.00 1430.51 404.00" xmlns="http://www.w3.org/2000/svg" xmlns:xlink="http://www.w3.org/1999/xlink">
<g id="graph0" class="graph" transform="scale(1 1) rotate(0) translate(4 400)">
<polygon fill="white" stroke="none" points="-4,4 -4,-400 1426.51,-400 1426.51,4 -4,4"/>
<!-- [root] data.aws_ami.ubuntu (expand) -->
<g id="node1" class="node">
<title>[root] data.aws_ami.ubuntu (expand)</title>
<polygon fill="none" stroke="black" points="1177.63,-180 1008.63,-180 1008.63,-144 1177.63,-144 1177.63,-180"/>
<text text-anchor="middle" x="1093.13" y="-158.3" font-family="Times,serif" font-size="14.00">data.aws_ami.ubuntu</text>
</g>
<!-- [root] provider[&quot;registry.terraform.io/hashicorp/aws&quot;] -->
<g id="node5" class="node">
<title>[root] provider[&quot;registry.terraform.io/hashicorp/aws&quot;]</title>
<polygon fill="none" stroke="black" points="1097.13,-108 771.87,-90 1097.13,-72 1422.39,-90 1097.13,-108"/>
<text text-anchor="middle" x="1097.13" y="-86.3" font-family="Times,serif" font-size="14.00">provider[&quot;registry.terraform.io/hashicorp/aws&quot;]</text>
</g>
<!-- [root] data.aws_ami.ubuntu (expand)&#45;&gt;[root] provider[&quot;registry.terraform.io/hashicorp/aws&quot;] -->
<g id="edge1" class="edge">
<title>[root] data.aws_ami.ubuntu (expand)&#45;&gt;[root] provider[&quot;registry.terraform.io/hashicorp/aws&quot;]</title>
<path fill="none" stroke="black" d="M1094.12,-143.7C1094.53,-136.41 1095.03,-127.73 1095.5,-119.54"/>
<polygon fill="black" stroke="black" points="1098.99,-119.8 1096.06,-109.62 1092,-119.4 1098.99,-119.8"/>
</g>
<!-- [root] module.servers.aws_eip.ip (expand) -->
<g id="node2" class="node">
<title>[root] module.servers.aws_eip.ip (expand)</title>
<polygon fill="none" stroke="black" points="1032.13,-252 826.13,-252 826.13,-216 1032.13,-216 1032.13,-252"/>
<text text-anchor="middle" x="929.13" y="-230.3" font-family="Times,serif" font-size="14.00">module.servers.aws_eip.ip</text>
</g>
<!-- [root] module.servers.aws_instance.web (expand) -->
<g id="node3" class="node">
<title>[root] module.servers.aws_instance.web (expand)</title>
<polygon fill="none" stroke="black" points="803.13,-180 543.13,-180 543.13,-144 803.13,-144 803.13,-180"/>
<text text-anchor="middle" x="673.13" y="-158.3" font-family="Times,serif" font-size="14.00">module.servers.aws_instance.web</text>
</g>
<!-- [root] module.servers.aws_eip.ip (expand)&#45;&gt;[root] module.servers.aws_instance.web (expand) -->
<g id="edge6" class="edge">
<title>[root] module.servers.aws_eip.ip (expand)&#45;&gt;[root] module.servers.aws_instance.web (expand)</title>
<path fill="none" stroke="black" d="M865.19,-215.52C829.47,-205.75 784.78,-193.53 747.5,-183.34"/>
<polygon fill="black" stroke="black" points="748.73,-180.04 738.16,-180.78 746.88,-186.79 748.73,-180.04"/>
</g>
<!-- [root] module.servers.aws_instance.web (expand)&#45;&gt;[root] provider[&quot;registry.terraform.io/hashicorp/aws&quot;] -->
<g id="edge8" class="edge">
<title>[root] module.servers.aws_instance.web (expand)&#45;&gt;[root] provider[&quot;registry.terraform.io/hashicorp/aws&quot;]</title>
<path fill="none" stroke="black" d="M779.03,-143.52C849.05,-131.96 939.89,-116.96 1006.55,-105.95"/>
<polygon fill="black" stroke="black" points="1007.08,-109.41 1016.38,-104.33 1005.94,-102.51 1007.08,-109.41"/>
</g>
<!-- [root] module.servers.var.image_id (expand) -->
<g id="node9" class="node">
<title>[root] module.servers.var.image_id (expand)</title>
<ellipse fill="none" stroke="black" cx="538.13" cy="-90" rx="215.56" ry="18"/>
<text text-anchor="middle" x="538.13" y="-86.3" font-family="Times,serif" font-size="14.00">[root] module.servers.var.image_id (expand)</text>
</g>
<!-- [root] module.servers.aws_instance.web (expand)&#45;&gt;[root] module.servers.var.image_id (expand) -->
<g id="edge7" class="edge">
<title>[root] module.servers.aws_instance.web (expand)&#45;&gt;[root] module.servers.var.image_id (expand)</title>
<path fill="none" stroke="black" d="M639.41,-143.52C621.88,-134.43 600.26,-123.22 581.5,-113.49"/>
<polygon fill="black" stroke="black" points="583.25,-110.45 572.76,-108.96 580.03,-116.67 583.25,-110.45"/>
</g>
<!-- [root] module.servers.aws_instance.web2 (expand) -->
<g id="node4" class="node">
<title>[root] module.servers.aws_instance.web2 (expand)</title>
<polygon fill="none" stroke="black" points="807.63,-252 538.63,-252 538.63,-216 807.63,-216 807.63,-252"/>
<text text-anchor="middle" x="673.13" y="-230.3" font-family="Times,serif" font-size="14.00">module.servers.aws_instance.web2</text>
</g>
<!-- [root] module.servers.aws_instance.web2 (expand)&#45;&gt;[root] module.servers.aws_instance.web (expand) -->
<g id="edge9" class="edge">
<title>[root] module.servers.aws_instance.web2 (expand)&#45;&gt;[root] module.servers.aws_instance.web (expand)</title>
<path fill="none" stroke="black" d="M673.13,-215.7C673.13,-208.41 673.13,-199.73 673.13,-191.54"/>
<polygon fill="black" stroke="black" points="676.63,-191.62 673.13,-181.62 669.63,-191.62 676.63,-191.62"/>
</g>
<!-- [root] module.servers (close) -->
<g id="node6" class="node">
<title>[root] module.servers (close)</title>
<ellipse fill="none" stroke="black" cx="540.13" cy="-306" rx="144.07" ry="18"/>
<text text-anchor="middle" x="540.13" y="-302.3" font-family="Times,serif" font-size="14.00">[root] module.servers (close)</text>
</g>
<!-- [root] module.servers (close)&#45;&gt;[root] module.servers.aws_eip.ip (expand) -->
<g id="edge2" class="edge">
<title>[root] module.servers (close)&#45;&gt;[root] module.servers.aws_eip.ip (expand)</title>
<path fill="none" stroke="black" d="M619.79,-290.67C677.77,-280.23 756.96,-265.98 820.7,-254.51"/>
<polygon fill="black" stroke="black" points="821.29,-257.96 830.52,-252.75 820.05,-251.07 821.29,-257.96"/>
</g>
<!-- [root] module.servers (close)&#45;&gt;[root] module.servers.aws_instance.web2 (expand) -->
<g id="edge3" class="edge">
<title>[root] module.servers (close)&#45;&gt;[root] module.servers.aws_instance.web2 (expand)</title>
<path fill="none" stroke="black" d="M572.32,-288.05C589.71,-278.91 611.4,-267.49 630.2,-257.59"/>
<polygon fill="black" stroke="black" points="631.75,-260.73 638.97,-252.98 628.49,-254.54 631.75,-260.73"/>
</g>
<!-- [root] module.servers.output.ip_address (expand) -->
<g id="node7" class="node">
<title>[root] module.servers.output.ip_address (expand)</title>
<ellipse fill="none" stroke="black" cx="241.13" cy="-234" rx="241.26" ry="18"/>
<text text-anchor="middle" x="241.13" y="-230.3" font-family="Times,serif" font-size="14.00">[root] module.servers.output.ip_address (expand)</text>
</g>
<!-- [root] module.servers (close)&#45;&gt;[root] module.servers.output.ip_address (expand) -->
<g id="edge4" class="edge">
<title>[root] module.servers (close)&#45;&gt;[root] module.servers.output.ip_address (expand)</title>
<path fill="none" stroke="black" d="M474.14,-289.55C429.72,-279.15 370.82,-265.36 323.35,-254.25"/>
<polygon fill="black" stroke="black" points="324.17,-250.85 313.64,-251.98 322.58,-257.66 324.17,-250.85"/>
</g>
<!-- [root] module.servers.var.servers (expand) -->
<g id="node8" class="node">
<title>[root] module.servers.var.servers (expand)</title>
<ellipse fill="none" stroke="black" cx="309.13" cy="-162" rx="209.06" ry="18"/>
<text text-anchor="middle" x="309.13" y="-158.3" font-family="Times,serif" font-size="14.00">[root] module.servers.var.servers (expand)</text>
</g>
<!-- [root] module.servers (close)&#45;&gt;[root] module.servers.var.servers (expand) -->
<g id="edge5" class="edge">
<title>[root] module.servers (close)&#45;&gt;[root] module.servers.var.servers (expand)</title>
<path fill="none" stroke="black" d="M535.06,-287.61C528.3,-267.45 514.39,-234.64 491.13,-216 471.33,-200.14 446.95,-189.02 422.54,-181.23"/>
<polygon fill="black" stroke="black" points="423.76,-177.94 413.17,-178.42 421.75,-184.65 423.76,-177.94"/>
</g>
<!-- [root] module.servers.output.ip_address (expand)&#45;&gt;[root] module.servers.aws_instance.web (expand) -->
<g id="edge10" class="edge">
<title>[root] module.servers.output.ip_address (expand)&#45;&gt;[root] module.servers.aws_instance.web (expand)</title>
<path fill="none" stroke="black" d="M339.16,-217.12C402.94,-206.78 486.53,-193.24 554.13,-182.28"/>
<polygon fill="black" stroke="black" points="554.45,-185.78 563.77,-180.72 553.33,-178.87 554.45,-185.78"/>
</g>
<!-- [root] module.servers (expand) -->
<g id="node10" class="node">
<title>[root] module.servers (expand)</title>
<ellipse fill="none" stroke="black" cx="416.13" cy="-18" rx="154.87" ry="18"/>
<text text-anchor="middle" x="416.13" y="-14.3" font-family="Times,serif" font-size="14.00">[root] module.servers (expand)</text>
</g>
<!-- [root] module.servers.var.servers (expand)&#45;&gt;[root] module.servers (expand) -->
<g id="edge12" class="edge">
<title>[root] module.servers.var.servers (expand)&#45;&gt;[root] module.servers (expand)</title>
<path fill="none" stroke="black" d="M305.12,-143.75C301.7,-124.62 299.27,-93.61 313.13,-72 321.95,-58.25 335.55,-47.88 350,-40.15"/>
<polygon fill="black" stroke="black" points="351.3,-43.41 358.73,-35.86 348.21,-37.12 351.3,-43.41"/>
</g>
<!-- [root] module.servers.var.image_id (expand)&#45;&gt;[root] module.servers (expand) -->
<g id="edge11" class="edge">
<title>[root] module.servers.var.image_id (expand)&#45;&gt;[root] module.servers (expand)</title>
<path fill="none" stroke="black" d="M507.97,-71.7C492.16,-62.63 472.6,-51.4 455.61,-41.65"/>
<polygon fill="black" stroke="black" points="457.67,-38.8 447.25,-36.86 454.18,-44.87 457.67,-38.8"/>
</g>
<!-- [root] output.ip_address (expand) -->
<g id="node11" class="node">
<title>[root] output.ip_address (expand)</title>
<ellipse fill="none" stroke="black" cx="211.13" cy="-306" rx="166.27" ry="18"/>
<text text-anchor="middle" x="211.13" y="-302.3" font-family="Times,serif" font-size="14.00">[root] output.ip_address (expand)</text>
</g>
<!-- [root] output.ip_address (expand)&#45;&gt;[root] module.servers.output.ip_address (expand) -->
<g id="edge13" class="edge">
<title>[root] output.ip_address (expand)&#45;&gt;[root] module.servers.output.ip_address (expand)</title>
<path fill="none" stroke="black" d="M218.54,-287.7C221.78,-280.15 225.65,-271.12 229.27,-262.68"/>
<polygon fill="black" stroke="black" points="232.48,-264.07 233.2,-253.5 226.05,-261.31 232.48,-264.07"/>
</g>
<!-- [root] provider[&quot;registry.terraform.io/hashicorp/aws&quot;] (close) -->
<g id="node12" class="node">
<title>[root] provider[&quot;registry.terraform.io/hashicorp/aws&quot;] (close)</title>
<ellipse fill="none" stroke="black" cx="994.13" cy="-306" rx="291.65" ry="18"/>
<text text-anchor="middle" x="994.13" y="-302.3" font-family="Times,serif" font-size="14.00">[root] provider[&quot;registry.terraform.io/hashicorp/aws&quot;] (close)</text>
</g>
<!-- [root] provider[&quot;registry.terraform.io/hashicorp/aws&quot;] (close)&#45;&gt;[root] data.aws_ami.ubuntu (expand) -->
<g id="edge14" class="edge">
<title>[root] provider[&quot;registry.terraform.io/hashicorp/aws&quot;] (close)&#45;&gt;[root] data.aws_ami.ubuntu (expand)</title>
<path fill="none" stroke="black" d="M1011.14,-287.59C1020.51,-277.58 1032.04,-264.55 1041.13,-252 1055.37,-232.35 1069.12,-208.54 1078.9,-190.49"/>
<polygon fill="black" stroke="black" points="1081.97,-192.16 1083.59,-181.69 1075.8,-188.86 1081.97,-192.16"/>
</g>
<!-- [root] provider[&quot;registry.terraform.io/hashicorp/aws&quot;] (close)&#45;&gt;[root] module.servers.aws_eip.ip (expand) -->
<g id="edge15" class="edge">
<title>[root] provider[&quot;registry.terraform.io/hashicorp/aws&quot;] (close)&#45;&gt;[root] module.servers.aws_eip.ip (expand)</title>
<path fill="none" stroke="black" d="M978.06,-287.7C970.43,-279.47 961.15,-269.48 952.73,-260.42"/>
<polygon fill="black" stroke="black" points="955.41,-258.16 946.04,-253.21 950.28,-262.92 955.41,-258.16"/>
</g>
<!-- [root] provider[&quot;registry.terraform.io/hashicorp/aws&quot;] (close)&#45;&gt;[root] module.servers.aws_instance.web2 (expand) -->
<g id="edge16" class="edge">
<title>[root] provider[&quot;registry.terraform.io/hashicorp/aws&quot;] (close)&#45;&gt;[root] module.servers.aws_instance.web2 (expand)</title>
<path fill="none" stroke="black" d="M917.24,-288.23C871.3,-278.21 812.67,-265.43 764.39,-254.9"/>
<polygon fill="black" stroke="black" points="765.3,-251.52 754.78,-252.81 763.81,-258.36 765.3,-251.52"/>
</g>
<!-- [root] root -->
<g id="node13" class="node">
<title>[root] root</title>
<ellipse fill="none" stroke="black" cx="540.13" cy="-378" rx="58.49" ry="18"/>
<text text-anchor="middle" x="540.13" y="-374.3" font-family="Times,serif" font-size="14.00">[root] root</text>
</g>
<!-- [root] root&#45;&gt;[root] module.servers (close) -->
<g id="edge17" class="edge">
<title>[root] root&#45;&gt;[root] module.servers (close)</title>
<path fill="none" stroke="black" d="M540.13,-359.7C540.13,-352.41 540.13,-343.73 540.13,-335.54"/>
<polygon fill="black" stroke="black" points="543.63,-335.62 540.13,-325.62 536.63,-335.62 543.63,-335.62"/>
</g>
<!-- [root] root&#45;&gt;[root] output.ip_address (expand) -->
<g id="edge18" class="edge">
<title>[root] root&#45;&gt;[root] output.ip_address (expand)</title>
<path fill="none" stroke="black" d="M492.99,-366.97C441.53,-356.02 358.11,-338.27 295.34,-324.92"/>
<polygon fill="black" stroke="black" points="296.26,-321.53 285.75,-322.88 294.8,-328.38 296.26,-321.53"/>
</g>
<!-- [root] root&#45;&gt;[root] provider[&quot;registry.terraform.io/hashicorp/aws&quot;] (close) -->
<g id="edge19" class="edge">
<title>[root] root&#45;&gt;[root] provider[&quot;registry.terraform.io/hashicorp/aws&quot;] (close)</title>
<path fill="none" stroke="black" d="M591.33,-369.11C660.41,-358.45 785.46,-339.17 877.96,-324.91"/>
<polygon fill="black" stroke="black" points="878.23,-328.41 887.58,-323.43 877.16,-321.49 878.23,-328.41"/>
</g>
</g>
</svg>
